<mxfile host="Electron" modified="2024-01-24T08:25:56.447Z" agent="Mozilla/5.0 (Windows NT 10.0; Win64; x64) AppleWebKit/537.36 (KHTML, like Gecko) draw.io/22.1.21 Chrome/120.0.6099.109 Electron/28.1.0 Safari/537.36" etag="MUFNvWiAarZ0Z3AXpLLu" version="22.1.21" type="device">
  <diagram name="Page-1" id="dPPf9247I2xoAvwt28pK">
    <mxGraphModel dx="2462" dy="1037" grid="1" gridSize="10" guides="1" tooltips="1" connect="1" arrows="1" fold="1" page="1" pageScale="1" pageWidth="1169" pageHeight="827" math="0" shadow="0">
      <root>
        <mxCell id="0" />
        <mxCell id="1" parent="0" />
        <mxCell id="iikrb7Kr2aP9E5gnHZ-d-15" style="edgeStyle=orthogonalEdgeStyle;rounded=0;orthogonalLoop=1;jettySize=auto;html=1;exitX=0;exitY=0;exitDx=0;exitDy=0;entryX=0;entryY=0.5;entryDx=0;entryDy=0;entryPerimeter=0;" edge="1" parent="1" source="iikrb7Kr2aP9E5gnHZ-d-4" target="iikrb7Kr2aP9E5gnHZ-d-23">
          <mxGeometry relative="1" as="geometry" />
        </mxCell>
        <mxCell id="iikrb7Kr2aP9E5gnHZ-d-16" style="edgeStyle=orthogonalEdgeStyle;rounded=0;orthogonalLoop=1;jettySize=auto;html=1;exitX=0.5;exitY=0;exitDx=0;exitDy=0;entryX=0;entryY=0.5;entryDx=0;entryDy=0;entryPerimeter=0;" edge="1" parent="1" source="iikrb7Kr2aP9E5gnHZ-d-4" target="iikrb7Kr2aP9E5gnHZ-d-25">
          <mxGeometry relative="1" as="geometry" />
        </mxCell>
        <mxCell id="iikrb7Kr2aP9E5gnHZ-d-17" style="edgeStyle=orthogonalEdgeStyle;rounded=0;orthogonalLoop=1;jettySize=auto;html=1;exitX=1;exitY=0;exitDx=0;exitDy=0;entryX=0;entryY=0.5;entryDx=0;entryDy=0;entryPerimeter=0;" edge="1" parent="1" source="iikrb7Kr2aP9E5gnHZ-d-4" target="iikrb7Kr2aP9E5gnHZ-d-26">
          <mxGeometry relative="1" as="geometry" />
        </mxCell>
        <mxCell id="iikrb7Kr2aP9E5gnHZ-d-4" value="RGB LED" style="ellipse;whiteSpace=wrap;html=1;aspect=fixed;" vertex="1" parent="1">
          <mxGeometry x="525" y="450" width="80" height="80" as="geometry" />
        </mxCell>
        <mxCell id="iikrb7Kr2aP9E5gnHZ-d-11" style="edgeStyle=orthogonalEdgeStyle;rounded=0;orthogonalLoop=1;jettySize=auto;html=1;exitX=0.75;exitY=0;exitDx=0;exitDy=0;entryX=0.25;entryY=0;entryDx=0;entryDy=0;" edge="1" parent="1" source="iikrb7Kr2aP9E5gnHZ-d-5" target="iikrb7Kr2aP9E5gnHZ-d-6">
          <mxGeometry relative="1" as="geometry" />
        </mxCell>
        <mxCell id="iikrb7Kr2aP9E5gnHZ-d-22" value="LATCH" style="edgeLabel;html=1;align=center;verticalAlign=middle;resizable=0;points=[];" vertex="1" connectable="0" parent="iikrb7Kr2aP9E5gnHZ-d-11">
          <mxGeometry x="-0.2717" y="-2" relative="1" as="geometry">
            <mxPoint x="64" as="offset" />
          </mxGeometry>
        </mxCell>
        <mxCell id="iikrb7Kr2aP9E5gnHZ-d-12" style="edgeStyle=orthogonalEdgeStyle;rounded=0;orthogonalLoop=1;jettySize=auto;html=1;exitX=0.5;exitY=0;exitDx=0;exitDy=0;entryX=0.5;entryY=0;entryDx=0;entryDy=0;" edge="1" parent="1" source="iikrb7Kr2aP9E5gnHZ-d-5" target="iikrb7Kr2aP9E5gnHZ-d-6">
          <mxGeometry relative="1" as="geometry">
            <Array as="points">
              <mxPoint x="170" y="120" />
              <mxPoint x="565" y="120" />
            </Array>
          </mxGeometry>
        </mxCell>
        <mxCell id="iikrb7Kr2aP9E5gnHZ-d-21" value="CLOCK" style="edgeLabel;html=1;align=center;verticalAlign=middle;resizable=0;points=[];" vertex="1" connectable="0" parent="iikrb7Kr2aP9E5gnHZ-d-12">
          <mxGeometry x="0.0194" relative="1" as="geometry">
            <mxPoint x="2" as="offset" />
          </mxGeometry>
        </mxCell>
        <mxCell id="iikrb7Kr2aP9E5gnHZ-d-13" style="edgeStyle=orthogonalEdgeStyle;rounded=0;orthogonalLoop=1;jettySize=auto;html=1;exitX=0.25;exitY=0;exitDx=0;exitDy=0;entryX=0.75;entryY=0;entryDx=0;entryDy=0;" edge="1" parent="1" source="iikrb7Kr2aP9E5gnHZ-d-5" target="iikrb7Kr2aP9E5gnHZ-d-6">
          <mxGeometry relative="1" as="geometry">
            <Array as="points">
              <mxPoint x="145" y="100" />
              <mxPoint x="603" y="100" />
              <mxPoint x="603" y="150" />
            </Array>
          </mxGeometry>
        </mxCell>
        <mxCell id="iikrb7Kr2aP9E5gnHZ-d-20" value="DATA" style="edgeLabel;html=1;align=center;verticalAlign=middle;resizable=0;points=[];" vertex="1" connectable="0" parent="iikrb7Kr2aP9E5gnHZ-d-13">
          <mxGeometry x="-0.1965" y="3" relative="1" as="geometry">
            <mxPoint x="59" as="offset" />
          </mxGeometry>
        </mxCell>
        <mxCell id="iikrb7Kr2aP9E5gnHZ-d-14" style="edgeStyle=orthogonalEdgeStyle;rounded=0;orthogonalLoop=1;jettySize=auto;html=1;anchorPointDirection=1;comic=0;fillColor=#d80073;strokeColor=#A50040;entryX=0.5;entryY=1;entryDx=0;entryDy=0;strokeWidth=3;" edge="1" parent="1" target="iikrb7Kr2aP9E5gnHZ-d-5">
          <mxGeometry relative="1" as="geometry">
            <mxPoint x="170" y="570" as="targetPoint" />
            <mxPoint x="170" y="570" as="sourcePoint" />
          </mxGeometry>
        </mxCell>
        <mxCell id="iikrb7Kr2aP9E5gnHZ-d-5" value="TEENSY 4.1" style="rounded=0;whiteSpace=wrap;html=1;" vertex="1" parent="1">
          <mxGeometry x="120" y="160" width="100" height="320" as="geometry" />
        </mxCell>
        <mxCell id="iikrb7Kr2aP9E5gnHZ-d-19" style="edgeStyle=orthogonalEdgeStyle;rounded=0;orthogonalLoop=1;jettySize=auto;html=1;exitX=1;exitY=0.5;exitDx=0;exitDy=0;entryX=0;entryY=0.5;entryDx=0;entryDy=0;" edge="1" parent="1" source="iikrb7Kr2aP9E5gnHZ-d-6" target="iikrb7Kr2aP9E5gnHZ-d-18">
          <mxGeometry relative="1" as="geometry" />
        </mxCell>
        <mxCell id="iikrb7Kr2aP9E5gnHZ-d-6" value="HC595N SWITCH REGISTER" style="rounded=0;whiteSpace=wrap;html=1;" vertex="1" parent="1">
          <mxGeometry x="490" y="170" width="150" height="60" as="geometry" />
        </mxCell>
        <mxCell id="iikrb7Kr2aP9E5gnHZ-d-18" value="GND" style="triangle;whiteSpace=wrap;html=1;rotation=90;" vertex="1" parent="1">
          <mxGeometry x="1000" y="290" width="60" height="80" as="geometry" />
        </mxCell>
        <mxCell id="iikrb7Kr2aP9E5gnHZ-d-24" style="edgeStyle=orthogonalEdgeStyle;rounded=0;orthogonalLoop=1;jettySize=auto;html=1;exitX=1;exitY=0.5;exitDx=0;exitDy=0;exitPerimeter=0;entryX=0.25;entryY=1;entryDx=0;entryDy=0;" edge="1" parent="1" source="iikrb7Kr2aP9E5gnHZ-d-23" target="iikrb7Kr2aP9E5gnHZ-d-6">
          <mxGeometry relative="1" as="geometry" />
        </mxCell>
        <mxCell id="iikrb7Kr2aP9E5gnHZ-d-23" value="" style="pointerEvents=1;verticalLabelPosition=bottom;shadow=0;dashed=0;align=center;html=1;verticalAlign=top;shape=mxgraph.electrical.resistors.resistor_1;rotation=-90;" vertex="1" parent="1">
          <mxGeometry x="470" y="324" width="100" height="20" as="geometry" />
        </mxCell>
        <mxCell id="iikrb7Kr2aP9E5gnHZ-d-28" style="edgeStyle=orthogonalEdgeStyle;rounded=0;orthogonalLoop=1;jettySize=auto;html=1;entryX=0.5;entryY=1;entryDx=0;entryDy=0;" edge="1" parent="1" source="iikrb7Kr2aP9E5gnHZ-d-25" target="iikrb7Kr2aP9E5gnHZ-d-6">
          <mxGeometry relative="1" as="geometry" />
        </mxCell>
        <mxCell id="iikrb7Kr2aP9E5gnHZ-d-25" value="" style="pointerEvents=1;verticalLabelPosition=bottom;shadow=0;dashed=0;align=center;html=1;verticalAlign=top;shape=mxgraph.electrical.resistors.resistor_1;rotation=-90;" vertex="1" parent="1">
          <mxGeometry x="515" y="324" width="100" height="20" as="geometry" />
        </mxCell>
        <mxCell id="iikrb7Kr2aP9E5gnHZ-d-27" style="edgeStyle=orthogonalEdgeStyle;rounded=0;orthogonalLoop=1;jettySize=auto;html=1;entryX=0.75;entryY=1;entryDx=0;entryDy=0;" edge="1" parent="1" source="iikrb7Kr2aP9E5gnHZ-d-26" target="iikrb7Kr2aP9E5gnHZ-d-6">
          <mxGeometry relative="1" as="geometry" />
        </mxCell>
        <mxCell id="iikrb7Kr2aP9E5gnHZ-d-26" value="" style="pointerEvents=1;verticalLabelPosition=bottom;shadow=0;dashed=0;align=center;html=1;verticalAlign=top;shape=mxgraph.electrical.resistors.resistor_1;rotation=-90;" vertex="1" parent="1">
          <mxGeometry x="560" y="324" width="100" height="20" as="geometry" />
        </mxCell>
        <mxCell id="iikrb7Kr2aP9E5gnHZ-d-31" value="" style="pointerEvents=1;verticalLabelPosition=bottom;shadow=0;dashed=0;align=center;html=1;verticalAlign=top;shape=mxgraph.electrical.miscellaneous.plug_socket_connection" vertex="1" parent="1">
          <mxGeometry x="1040" y="638" width="60" height="60" as="geometry" />
        </mxCell>
        <mxCell id="iikrb7Kr2aP9E5gnHZ-d-35" style="edgeStyle=orthogonalEdgeStyle;rounded=0;orthogonalLoop=1;jettySize=auto;html=1;entryX=0.5;entryY=1;entryDx=0;entryDy=0;exitX=1;exitY=0.395;exitDx=0;exitDy=0;exitPerimeter=0;" edge="1" parent="1" source="iikrb7Kr2aP9E5gnHZ-d-32" target="iikrb7Kr2aP9E5gnHZ-d-4">
          <mxGeometry relative="1" as="geometry" />
        </mxCell>
        <mxCell id="iikrb7Kr2aP9E5gnHZ-d-36" value="5V" style="edgeLabel;html=1;align=center;verticalAlign=middle;resizable=0;points=[];" vertex="1" connectable="0" parent="iikrb7Kr2aP9E5gnHZ-d-35">
          <mxGeometry x="-0.0769" y="-7" relative="1" as="geometry">
            <mxPoint x="60" y="8" as="offset" />
          </mxGeometry>
        </mxCell>
        <mxCell id="iikrb7Kr2aP9E5gnHZ-d-37" style="edgeStyle=orthogonalEdgeStyle;rounded=0;orthogonalLoop=1;jettySize=auto;html=1;" edge="1" parent="1" source="iikrb7Kr2aP9E5gnHZ-d-32">
          <mxGeometry relative="1" as="geometry">
            <mxPoint x="835" y="200" as="targetPoint" />
          </mxGeometry>
        </mxCell>
        <mxCell id="iikrb7Kr2aP9E5gnHZ-d-32" value="" style="verticalLabelPosition=bottom;shadow=0;dashed=0;align=center;html=1;verticalAlign=top;shape=mxgraph.electrical.abstract.voltage_regulator;rotation=-180;" vertex="1" parent="1">
          <mxGeometry x="770" y="620" width="130" height="78" as="geometry" />
        </mxCell>
        <mxCell id="iikrb7Kr2aP9E5gnHZ-d-33" style="edgeStyle=orthogonalEdgeStyle;rounded=0;orthogonalLoop=1;jettySize=auto;html=1;entryX=0;entryY=0.395;entryDx=0;entryDy=0;entryPerimeter=0;" edge="1" parent="1" source="iikrb7Kr2aP9E5gnHZ-d-31" target="iikrb7Kr2aP9E5gnHZ-d-32">
          <mxGeometry relative="1" as="geometry" />
        </mxCell>
        <mxCell id="iikrb7Kr2aP9E5gnHZ-d-34" value="9V" style="edgeLabel;html=1;align=center;verticalAlign=middle;resizable=0;points=[];" vertex="1" connectable="0" parent="iikrb7Kr2aP9E5gnHZ-d-33">
          <mxGeometry x="-0.5453" y="-1" relative="1" as="geometry">
            <mxPoint x="-49" y="1" as="offset" />
          </mxGeometry>
        </mxCell>
        <mxCell id="iikrb7Kr2aP9E5gnHZ-d-39" value="VOLTAGE REGULATOR" style="text;html=1;strokeColor=none;fillColor=none;align=center;verticalAlign=middle;whiteSpace=wrap;rounded=0;" vertex="1" parent="1">
          <mxGeometry x="805" y="653" width="60" height="30" as="geometry" />
        </mxCell>
        <mxCell id="iikrb7Kr2aP9E5gnHZ-d-42" style="edgeStyle=orthogonalEdgeStyle;rounded=0;orthogonalLoop=1;jettySize=auto;html=1;" edge="1" parent="1" source="iikrb7Kr2aP9E5gnHZ-d-40">
          <mxGeometry relative="1" as="geometry">
            <mxPoint x="920" y="200" as="targetPoint" />
          </mxGeometry>
        </mxCell>
        <mxCell id="iikrb7Kr2aP9E5gnHZ-d-40" value="" style="pointerEvents=1;verticalLabelPosition=bottom;shadow=0;dashed=0;align=center;html=1;verticalAlign=top;shape=mxgraph.electrical.capacitors.capacitor_1;rotation=90;" vertex="1" parent="1">
          <mxGeometry x="870" y="420" width="100" height="60" as="geometry" />
        </mxCell>
        <mxCell id="iikrb7Kr2aP9E5gnHZ-d-41" style="edgeStyle=orthogonalEdgeStyle;rounded=0;orthogonalLoop=1;jettySize=auto;html=1;exitX=0;exitY=0.395;exitDx=0;exitDy=0;exitPerimeter=0;entryX=1;entryY=0.5;entryDx=0;entryDy=0;entryPerimeter=0;" edge="1" parent="1" source="iikrb7Kr2aP9E5gnHZ-d-32" target="iikrb7Kr2aP9E5gnHZ-d-40">
          <mxGeometry relative="1" as="geometry" />
        </mxCell>
        <mxCell id="iikrb7Kr2aP9E5gnHZ-d-45" style="edgeStyle=orthogonalEdgeStyle;rounded=0;orthogonalLoop=1;jettySize=auto;html=1;" edge="1" parent="1" source="iikrb7Kr2aP9E5gnHZ-d-43">
          <mxGeometry relative="1" as="geometry">
            <mxPoint x="740" y="200" as="targetPoint" />
          </mxGeometry>
        </mxCell>
        <mxCell id="iikrb7Kr2aP9E5gnHZ-d-43" value="" style="pointerEvents=1;verticalLabelPosition=bottom;shadow=0;dashed=0;align=center;html=1;verticalAlign=top;shape=mxgraph.electrical.capacitors.capacitor_1;rotation=90;" vertex="1" parent="1">
          <mxGeometry x="690" y="420" width="100" height="60" as="geometry" />
        </mxCell>
        <mxCell id="iikrb7Kr2aP9E5gnHZ-d-44" style="edgeStyle=orthogonalEdgeStyle;rounded=0;orthogonalLoop=1;jettySize=auto;html=1;exitX=1;exitY=0.395;exitDx=0;exitDy=0;exitPerimeter=0;entryX=1;entryY=0.5;entryDx=0;entryDy=0;entryPerimeter=0;" edge="1" parent="1" source="iikrb7Kr2aP9E5gnHZ-d-32" target="iikrb7Kr2aP9E5gnHZ-d-43">
          <mxGeometry relative="1" as="geometry" />
        </mxCell>
        <mxCell id="iikrb7Kr2aP9E5gnHZ-d-46" value="100uF CAPACITOR" style="text;html=1;strokeColor=none;fillColor=none;align=center;verticalAlign=middle;whiteSpace=wrap;rounded=0;" vertex="1" parent="1">
          <mxGeometry x="930" y="460" width="60" height="30" as="geometry" />
        </mxCell>
        <mxCell id="iikrb7Kr2aP9E5gnHZ-d-47" value="100uF CAPACITOR" style="text;html=1;strokeColor=none;fillColor=none;align=center;verticalAlign=middle;whiteSpace=wrap;rounded=0;" vertex="1" parent="1">
          <mxGeometry x="670" y="460" width="60" height="30" as="geometry" />
        </mxCell>
        <mxCell id="iikrb7Kr2aP9E5gnHZ-d-49" value="I&#39;ve tried loads of different resisters :(" style="shape=callout;whiteSpace=wrap;html=1;perimeter=calloutPerimeter;position2=1;fillColor=#e3c800;fontColor=#000000;strokeColor=#B09500;base=41;size=34;position=0.71;" vertex="1" parent="1">
          <mxGeometry x="280" y="240" width="230" height="94" as="geometry" />
        </mxCell>
      </root>
    </mxGraphModel>
  </diagram>
</mxfile>
